<?xml version="1.0" encoding="UTF-8"?>
<svg width="28px" height="26px" viewBox="0 0 28 26" version="1.1" xmlns="http://www.w3.org/2000/svg" xmlns:xlink="http://www.w3.org/1999/xlink">
    <title>icon-beneficiaries</title>
    <defs>
        <linearGradient x1="6.0546875%" y1="0%" x2="93.534717%" y2="99.5328336%" id="linearGradient-1">
            <stop stop-color="#FF9560" offset="0%"></stop>
            <stop stop-color="#FF681D" offset="100%"></stop>
        </linearGradient>
        <linearGradient x1="0%" y1="19.7530864%" x2="100%" y2="80.2469136%" id="linearGradient-2">
            <stop stop-color="#C34C84" offset="0%"></stop>
            <stop stop-color="#AA0050" offset="100%"></stop>
        </linearGradient>
        <linearGradient x1="0%" y1="27.7777778%" x2="99.5328336%" y2="72.0145927%" id="linearGradient-3">
            <stop stop-color="#536479" offset="0%"></stop>
            <stop stop-color="#0A2240" offset="100%"></stop>
        </linearGradient>
        <linearGradient x1="0%" y1="19.7530864%" x2="99.5328336%" y2="79.9643068%" id="linearGradient-4">
            <stop stop-color="#536479" offset="0%"></stop>
            <stop stop-color="#0A2240" offset="100%"></stop>
        </linearGradient>
    </defs>
    <g id="Navigations" stroke="none" stroke-width="1" fill="none" fill-rule="evenodd">
        <g id="2-Universal-Collection/Navigations/1-Retail/Horizontal-Nav/4-Dropdown/1-Payments" transform="translate(-42.000000, -225.000000)" fill-rule="nonzero">
            <g id="icon-beneficiaries" transform="translate(42.000000, 225.000000)">
                <g id="Group-Copy" transform="translate(10.000000, 9.000000)">
                    <path d="M9.5,1 C5.35786438,1 2,4.581722 2,9 C2,13.418278 5.35786438,17 9.5,17 C13.6421356,17 17,13.418278 17,9 C17,4.581722 13.6421356,1 9.5,1 Z" id="Path" fill="url(#linearGradient-1)"></path>
                    <path d="M16.5882353,0 L6,0 C2.68623529,0 0,2.73215385 0,6.1025641 L0,11.6666667 C0,12.9553846 1.02705882,14 2.29411765,14 L2.29411765,14 C3.56117647,14 4.58823529,12.9553846 4.58823529,11.6666667 L4.58823529,9.69230769 C4.58823529,7.51153846 6.32647059,5.74358974 8.47058824,5.74358974 L13.7647059,5.74358974 C16.1036471,5.74358974 18,3.81482051 18,1.43589744 L18,1.43589744 C18,0.642923077 17.3678824,0 16.5882353,0 Z" id="Path" fill="url(#linearGradient-2)"></path>
                    <path d="M13.1111111,9.66666667 C13.4166667,9.66666667 13.6666667,9.81666667 13.6666667,10 C13.6666667,10.5523333 12.9205556,11 12,11 C11.0794444,11 10.3333333,10.5523333 10.3333333,10 C10.3333333,9.81666667 10.5833333,9.66666667 10.8888889,9.66666667 L10.8888889,9.66666667 Z M9.66666667,7 C10.0346667,7 10.3333333,7.29866667 10.3333333,7.66666667 C10.3333333,8.03466667 10.0346667,8.33333333 9.66666667,8.33333333 C9.29866667,8.33333333 9,8.03466667 9,7.66666667 C9,7.29866667 9.29866667,7 9.66666667,7 Z M14.3333333,7 C14.7013333,7 15,7.29866667 15,7.66666667 C15,8.03466667 14.7013333,8.33333333 14.3333333,8.33333333 C13.9653333,8.33333333 13.6666667,8.03466667 13.6666667,7.66666667 C13.6666667,7.29866667 13.9653333,7 14.3333333,7 Z" id="Path-2" fill="url(#linearGradient-3)"></path>
                </g>
                <g id="Group">
                    <path d="M9.5,1 C5.35786438,1 2,4.581722 2,9 C2,13.418278 5.35786438,17 9.5,17 C13.6421356,17 17,13.418278 17,9 C17,4.581722 13.6421356,1 9.5,1 Z" id="Path" fill="url(#linearGradient-1)"></path>
                    <path d="M16.5882353,0 L6,0 C2.68623529,0 0,2.73215385 0,6.1025641 L0,11.6666667 C0,12.9553846 1.02705882,14 2.29411765,14 L2.29411765,14 C3.56117647,14 4.58823529,12.9553846 4.58823529,11.6666667 L4.58823529,9.69230769 C4.58823529,7.51153846 6.32647059,5.74358974 8.47058824,5.74358974 L13.7647059,5.74358974 C16.1036471,5.74358974 18,3.81482051 18,1.43589744 L18,1.43589744 C18,0.642923077 17.3678824,0 16.5882353,0 Z" id="Path" fill="url(#linearGradient-4)"></path>
                    <path d="M13.1111111,9.66666667 C13.4166667,9.66666667 13.6666667,9.81666667 13.6666667,10 C13.6666667,10.5523333 12.9205556,11 12,11 C11.0794444,11 10.3333333,10.5523333 10.3333333,10 C10.3333333,9.81666667 10.5833333,9.66666667 10.8888889,9.66666667 L10.8888889,9.66666667 Z M9.66666667,7 C10.0346667,7 10.3333333,7.29866667 10.3333333,7.66666667 C10.3333333,8.03466667 10.0346667,8.33333333 9.66666667,8.33333333 C9.29866667,8.33333333 9,8.03466667 9,7.66666667 C9,7.29866667 9.29866667,7 9.66666667,7 Z M14.3333333,7 C14.7013333,7 15,7.29866667 15,7.66666667 C15,8.03466667 14.7013333,8.33333333 14.3333333,8.33333333 C13.9653333,8.33333333 13.6666667,8.03466667 13.6666667,7.66666667 C13.6666667,7.29866667 13.9653333,7 14.3333333,7 Z" id="Path-2" fill="url(#linearGradient-3)"></path>
                </g>
            </g>
        </g>
    </g>
</svg>