<?xml version="1.0" encoding="UTF-8"?>
<svg width="32px" height="27px" viewBox="0 0 32 27" version="1.1" xmlns="http://www.w3.org/2000/svg" xmlns:xlink="http://www.w3.org/1999/xlink">
    <title>icon-billpayments</title>
    <defs>
        <linearGradient x1="0%" y1="46.7510739%" x2="99.5328336%" y2="53.2185704%" id="linearGradient-1">
            <stop stop-color="#536479" offset="0%"></stop>
            <stop stop-color="#0A2240" offset="100%"></stop>
        </linearGradient>
        <linearGradient x1="0%" y1="4.18219008%" x2="99.5328336%" y2="95.3897191%" id="linearGradient-2">
            <stop stop-color="#536479" offset="0%"></stop>
            <stop stop-color="#0A2240" offset="100%"></stop>
        </linearGradient>
        <linearGradient x1="0%" y1="0%" x2="99.5328336%" y2="99.5328336%" id="linearGradient-3">
            <stop stop-color="#536479" offset="0%"></stop>
            <stop stop-color="#0A2240" offset="100%"></stop>
        </linearGradient>
    </defs>
    <g id="Navigations" stroke="none" stroke-width="1" fill="none" fill-rule="evenodd">
        <g id="2-Universal-Collection/Navigations/1-Retail/Horizontal-Nav/4-Dropdown/1-Payments" transform="translate(-40.000000, -441.000000)">
            <g id="icon-billpayments" transform="translate(40.000000, 441.000000)">
                <g id="information-copy" transform="translate(7.000000, 0.000000)">
                    <path d="M0.00236552119,1.49994118 L0,22.4984589 C0,23.3232478 0.652246977,23.9982119 1.44960958,23.998306 L15.547661,24 C16.3452965,24 16.9979984,23.32513 16.9980894,22.5000588 L17,5.52596287 C17,5.06543068 16.8232228,4.62372068 16.508472,4.29804955 L12.8471911,0.509940475 C12.5323948,0.184269346 12.1054637,0.00127049855 11.6602453,0.00122344305 L1.45274845,0 C0.655112897,0 0.00245650277,0.674870009 0.00236552119,1.49994118 Z" id="Path" fill="#C0C6D0"></path>
                    <g id="Group" transform="translate(3.000000, 10.000000)" fill-rule="nonzero">
                        <g transform="translate(3.189076, 0.044243)" fill="url(#linearGradient-1)" id="Path">
                            <path d="M0.463247899,6.04501156 L6.69761345,6.04501156 C6.93235714,6.04501156 7.12263866,5.86286174 7.12263866,5.63814982 L7.12263866,4.64599296 C7.12263866,4.42128105 6.93235714,4.23913122 6.69761345,4.23913122 L0.463247899,4.23913122 C0.228504202,4.23913122 0.0382226891,4.42128105 0.0382226891,4.64599296 L0.0382226891,5.63814982 C0.0382226891,5.86286174 0.228504202,6.04501156 0.463247899,6.04501156 Z"></path>
                            <g>
                                <path d="M0.463247899,1.81658723 L6.69761345,1.81658723 C6.93235714,1.81658723 7.12263866,1.63443741 7.12263866,1.40972549 L7.12263866,0.417568627 C7.12263866,0.192856712 6.93235714,0.0107068879 6.69761345,0.0107068879 L0.463247899,0.0107068879 C0.228504202,0.0107068879 0.0382226891,0.192856712 0.0382226891,0.417568627 L0.0382226891,1.40972549 C0.0382226891,1.63443741 0.228504202,1.81658723 0.463247899,1.81658723 Z"></path>
                            </g>
                        </g>
                        <g fill="url(#linearGradient-2)" id="Oval">
                            <ellipse cx="0.998735294" cy="0.957912519" rx="1" ry="1"></ellipse>
                            <ellipse cx="0.998735294" cy="5.18633685" rx="1" ry="1"></ellipse>
                        </g>
                    </g>
                    <path d="M16.9852044,4.93178119 C16.9905599,4.95523712 16.9955069,4.97800721 17,5 L12.5682231,5 C12.2544296,5 12,4.74372222 12,4.42754723 L12,0 C12.0346289,0.00621833678 12.0710279,0.013488304 12.1085615,0.0218556249 C12.4389206,0.0954697588 12.7401423,0.266611189 12.9794133,0.507617463 L16.5038033,4.05824204 C16.7421211,4.29833385 16.9094565,4.60097482 16.9852044,4.93178119 Z" id="Path" fill="url(#linearGradient-3)" fill-rule="nonzero"></path>
                </g>
                <g id="money-(1)" transform="translate(7.000000, 20.000000) scale(-1, 1) translate(-7.000000, -20.000000) translate(0.000000, 13.000000)" fill-rule="nonzero">
                    <circle id="Oval" fill="#FFCA5D" cx="5" cy="5" r="5"></circle>
                    <circle id="Oval" fill="#F6B545" cx="5" cy="5" r="5"></circle>
                    <path d="M5,0 C2.2142901,0 0,2.2142901 0,5 C0,7.7857099 2.2142901,10 5,10 C7.7857099,10 10,7.78564852 10,5 C10,2.21435148 7.7857099,0 5,0 Z M5,8.57135842 C3,8.57135842 1.4285802,6.99993862 1.4285802,4.99993862 C1.4285802,2.99993862 3,1.42851881 5,1.42851881 C7,1.42851881 8.5714198,2.99993862 8.5714198,4.99993862 C8.5714198,6.99993862 7,8.57135842 5,8.57135842 Z" id="Shape" fill="#FFCB5B"></path>
                    <path d="M5,9.99834572 L5,9.99834572 C7.7857099,10.070809 10,7.75273198 10,5 L9.92854951,5 C9.5714198,5 9.28567921,5.28979075 9.2142901,5.6519825 C9.07145049,6.66615674 8.5714198,7.60786774 7.8571604,8.25985023 C7.28574059,8.83936948 6.50003069,9.20156123 5.6428703,9.34648773 C5.28574059,9.34642548 5,9.63615397 5,9.99834572 Z" id="Path" fill="#F6B545"></path>
                    <path d="M5,0.00165421682 L5,0.00165421682 C2.2142901,-0.0708081325 0,2.24730227 0,5 L0.0714504941,5 C0.428580198,5 0.714320791,4.71021286 0.785709901,4.34802561 C0.928549506,3.33386399 1.4285802,2.39216471 2.1428396,1.74019033 C2.71425941,1.16067829 3.49996931,0.798491048 4.3571297,0.653566349 C4.71432079,0.653566349 5,0.363841458 5,0.00165421682 Z" id="Path" fill="#FFE27A"></path>
                    <path d="M1.55059673,4.88634766 C1.55059673,2.97724609 3.28092774,1.47724609 5.48317948,1.47724609 C6.42702097,1.47724609 7.29218647,1.75 8,2.29544922 C7.21351049,1.47724609 6.19099301,1 4.93258275,1 C2.730331,1 1,2.5 1,4.40910156 C1,5.5 1.55052914,6.38634766 2.41569464,7 C1.86523309,6.45455078 1.55059673,5.70455078 1.55059673,4.88634766 Z" id="Path" fill="#F19920"></path>
                    <path d="M7.4390203,7 C7.34142763,7 7.2439188,7 7.14632613,6.91664081 C6.95122462,6.74999403 6.95122462,6.49998806 7.14632613,6.33334129 C7.73171447,5.83332935 8.02440865,5.08331145 8.02440865,4.41665274 C8.02440865,4.16664677 8.21951015,4 8.51220432,4 C8.8048985,4 9,4.16664677 9,4.41665274 C9,5.33331742 8.60971315,6.2499821 7.92681598,6.91664081 C7.73163063,7 7.53652913,7 7.4390203,7 Z" id="Path" fill="#FFCB5B"></path>
                    <path d="M5,7 C4.39996562,7 4,6.73330278 4,6.33334288 L4,3.66665712 C4,3.26663993 4.40005156,3 5,3 C5.60003436,3 6,3.26669722 6,3.66665712 L6,6.33334288 C6.00008593,6.73330278 5.60003436,7 5,7 Z" id="Path" fill="#F19920"></path>
                    <g id="Group" transform="translate(3.000000, 4.000000)" fill="#F6B545">
                        <path d="M5.19995488,0.0666870369 C5.34993716,0.466694676 5.49998389,0.866702315 5.49998389,1.3333397 C5.49998389,3.20000382 3.8499855,4.6666603 1.74997583,4.6666603 C1.52497019,4.6666603 1.22500564,4.6666603 1,4.59997326 L1,4.6666603 C1,5.13329769 1.07502336,5.53330532 1.22500564,6 C1.37498792,6 1.59999355,6 1.74997583,6 C4.67498469,6 7,3.93333206 7,1.3333397 C7,0.866702315 6.92497664,0.466694676 6.77499436,0 C6.62501208,0 6.40000645,0 6.25002417,0 C5.87490735,0 5.5749428,0 5.19995488,0.0666870369 Z" id="Path"></path>
                        <ellipse id="Oval" cx="5.5" cy="5.5" rx="5.5" ry="4.5"></ellipse>
                    </g>
                    <path d="M9,4 C6.2142901,4 4,6.2142901 4,9 C4,11.7857099 6.2142901,14 9,14 C11.7857099,14 14,11.7857099 14,9 C14,6.2142901 11.7857099,4 9,4 Z M9,12.5714198 C7,12.5714198 5.4285802,11 5.4285802,9 C5.4285802,7 7,5.4285802 9,5.4285802 C11,5.4285802 12.5714198,7 12.5714198,9 C12.5714198,11 11,12.5714198 9,12.5714198 Z" id="Shape" fill="#FFCB5B"></path>
                    <path d="M9,13.9983458 L9,13.9983458 C11.7857099,14.0708081 14,11.7526977 14,9 L13.9285495,9 C13.5714198,9 13.2856792,9.28978714 13.2142901,9.65197439 C13.0714505,10.666136 12.5714198,11.6078353 11.8571604,12.2598097 C11.2857406,12.8393217 10.5000307,13.201509 9.6428703,13.3464337 C9.28574059,13.3463714 9,13.6360963 9,13.9983458 Z" id="Path" fill="#F6B545"></path>
                    <path d="M9,4.00165422 L9,4.00165422 C6.2142901,3.92919187 4,6.24730227 4,9 L4.07145049,9 C4.4285802,9 4.71432079,8.71021286 4.7857099,8.34802561 C4.92854951,7.33386399 5.4285802,6.39216471 6.1428396,5.74019033 C6.71425941,5.16067829 7.49996931,4.79849105 8.3571297,4.65356635 C8.71432079,4.6536286 9,4.36384146 9,4.00165422 Z" id="Path" fill="#FFE27A"></path>
                    <path d="M5.55059673,8.88634766 C5.55059673,6.97724609 7.28092774,5.47724609 9.48317948,5.47724609 C10.427021,5.47724609 11.2921865,5.75 12,6.29544922 C11.2135105,5.47724609 10.190993,5 8.93258275,5 C6.730331,5 5,6.5 5,8.40910156 C5,9.5 5.55052914,10.3863477 6.41569464,11 C5.8651655,10.4545508 5.55059673,9.70455078 5.55059673,8.88634766 Z" id="Path" fill="#F19920"></path>
                    <path d="M11.4390203,11 C11.3414276,11 11.2439188,11 11.1463261,10.9166408 C10.9512246,10.749994 10.9512246,10.4999881 11.1463261,10.3333413 C11.7317145,9.83332935 12.0244086,9.08331145 12.0244086,8.41665274 C12.0244086,8.16664677 12.2195102,8 12.5122043,8 C12.8048985,8 13,8.16664677 13,8.41665274 C13,9.33331742 12.6097132,10.2499821 11.926816,10.9166408 C11.7317145,11 11.536613,11 11.4390203,11 Z" id="Path" fill="#FFCB5B"></path>
                    <path d="M9,11 C8.39996562,11 8,10.7333066 8,10.3333524 L8,7.66664757 C8,7.26663611 8.40005156,7 9,7 C9.60003436,7 10,7.2666934 10,7.66664757 L10,10.3332951 C10.0000859,10.7333066 9.60003436,11 9,11 Z" id="Path" fill="#F19920"></path>
                </g>
                <path d="M22.7832277,20.5204623 L28.0264236,15.2772662 L30.1400778,17.3936491 C30.8176656,18.0712367 31.9801081,17.5869249 31.9826551,16.6260907 L32,10.0858855 C32.0015868,9.48434342 31.5156564,8.99841315 30.9141143,9 L24.3815299,9.01732538 C23.4206956,9.0198725 22.9369282,10.1823136 23.6139717,10.8599027 L25.7238252,12.972485 L20.4795377,18.2167727 C19.8425598,18.8537506 19.8398049,19.8929758 20.4734147,20.5265855 C21.1070245,21.1601951 22.1462498,21.1574402 22.7832277,20.5204623 Z" id="Path" fill="url(#linearGradient-3)" fill-rule="nonzero" transform="translate(26.000000, 15.000000) rotate(-360.000000) translate(-26.000000, -15.000000) "></path>
            </g>
        </g>
    </g>
</svg>