<svg width="32" height="23" viewBox="0 0 32 23" fill="none" xmlns="http://www.w3.org/2000/svg">
<g clip-path="url(#clip0_201_28904)">
<path d="M0.800049 16.4044V5.41176C0.800049 4.01063 2.23177 2.875 3.99824 2.875H25.3195C27.086 2.875 28.5177 4.01063 28.5177 5.41176V16.4044C28.5177 17.8056 27.086 18.9412 25.3195 18.9412H3.99824C2.23177 18.9412 0.800049 17.8056 0.800049 16.4044Z" fill="url(#paint0_linear_201_28904)"/>
<path opacity="0.2" fill-rule="evenodd" clip-rule="evenodd" d="M24.9183 5.28491H4.39947C3.89326 5.28491 3.48242 5.50084 3.48242 5.7669V7.21285C3.48242 7.47891 3.89326 7.69484 4.39947 7.69484H24.9183C25.4245 7.69484 25.8354 7.47891 25.8354 7.21285V5.7669C25.8354 5.50084 25.4245 5.28491 24.9183 5.28491ZM4.24881 11.7114H6.29251C6.71555 11.7114 7.05889 12.0713 7.05889 12.5147C7.05889 12.9581 6.71555 13.318 6.29251 13.318H4.24881C3.82576 13.318 3.48242 12.9581 3.48242 12.5147C3.48242 12.0713 3.82576 11.7114 4.24881 11.7114ZM12.4981 14.9246H4.30203C3.84961 14.9246 3.48242 15.2845 3.48242 15.7279C3.48242 16.1714 3.84961 16.5312 4.30203 16.5312H12.4981C12.9505 16.5312 13.3177 16.1714 13.3177 15.7279C13.3177 15.2845 12.9505 14.9246 12.4981 14.9246ZM10.5076 11.7114H12.5513C12.9744 11.7114 13.3177 12.0713 13.3177 12.5147C13.3177 12.9581 12.9744 13.318 12.5513 13.318H10.5076C10.0846 13.318 9.74125 12.9581 9.74125 12.5147C9.74125 12.0713 10.0846 11.7114 10.5076 11.7114ZM18.8102 11.7114H16.7665C16.3434 11.7114 16.0001 12.0713 16.0001 12.5147C16.0001 12.9581 16.3434 13.318 16.7665 13.318H18.8102C19.2332 13.318 19.5765 12.9581 19.5765 12.5147C19.5765 12.0713 19.2332 11.7114 18.8102 11.7114ZM23.0253 11.7114H25.069C25.492 11.7114 25.8354 12.0713 25.8354 12.5147C25.8354 12.9581 25.492 13.318 25.069 13.318H23.0253C22.6022 13.318 22.2589 12.9581 22.2589 12.5147C22.2589 12.0713 22.6022 11.7114 23.0253 11.7114Z" fill="white"/>
<path fill-rule="evenodd" clip-rule="evenodd" d="M31.2001 12.037C31.2001 12.3576 31.0764 12.6782 30.8413 12.9233L24.2939 19.5769L23.4024 20.4821C22.9279 20.9643 22.1578 20.9643 21.6833 20.4821L20.7919 19.5769L17.9573 16.6964C17.481 16.2061 17.481 15.4077 17.9573 14.9174C18.1986 14.6785 18.5141 14.5528 18.8358 14.5528C19.1513 14.5528 19.4668 14.6785 19.708 14.9174L22.5425 17.7978L29.0906 11.1443C29.5731 10.6602 30.3588 10.6602 30.8413 11.1443C31.0764 11.3895 31.2001 11.7101 31.2001 12.037Z" fill="#00AD6C"/>
</g>
<defs>
<linearGradient id="paint0_linear_201_28904" x1="-12.994" y1="10.8706" x2="0.882004" y2="34.8097" gradientUnits="userSpaceOnUse">
<stop stop-color="#42556C"/>
<stop offset="1" stop-color="#1C334E"/>
</linearGradient>
<clipPath id="clip0_201_28904">
<rect width="32" height="23" fill="white"/>
</clipPath>
</defs>
</svg>
