<?xml version="1.0" encoding="UTF-8"?>
<svg width="100px" height="100px" viewBox="0 0 100 100" xmlns="http://www.w3.org/2000/svg" xmlns:xlink="http://www.w3.org/1999/xlink">
    <title>Group 22</title>
    <defs>
        <linearGradient x1="0%" y1="6.8874935%" x2="100%" y2="93.1125065%" id="linearGradient-1">
            <stop stop-color="#F56A60" offset="0%"></stop>
            <stop stop-color="#DE3831" offset="100%"></stop>
        </linearGradient>
    </defs>
    <g id="General-empty-screens-and-error-states-" stroke="none" stroke-width="1" fill="none" fill-rule="evenodd">
        <g id="Something-went-wrong_general" transform="translate(-157.000000, -340.000000)">
            <g id="Group-3" transform="translate(126.000000, 315.000000)">
                <g id="Group-22" transform="translate(31.000000, 25.000000)">
                    <rect id="Rectangle" x="0" y="0" width="100" height="100"></rect>
                    <g id="Group" transform="translate(8.000000, 8.000000)">
                        <path d="M0.894088952,68.5225568 L37.2963182,3.11050325 C38.3675337,1.1857224 40.3519735,0 42.499613,0 C44.6472525,0 46.6316923,1.1857224 47.7029078,3.11050325 L84.105137,68.5225568 C85.2284376,70.5406169 85.2978843,73.0053409 84.290907,75.0879789 C83.1502448,77.4432792 80.82378,78.9285714 78.2785581,78.9285714 L6.72066793,78.9285714 C4.17544601,78.9285714 1.84898122,77.4432792 0.711791338,75.0915666 C-0.298658295,73.0053409 -0.229211585,70.5406169 0.894088952,68.5225568 Z" id="Path" fill="url(#linearGradient-1)"></path>
                        <path d="M42.4997421,24.2857143 C39.1462897,24.2857143 36.4283135,26.5506944 36.4283135,29.3452381 L38.1829564,51.2765873 C38.3347421,53.1705357 40.2229564,54.6428571 42.4997421,54.6428571 C44.7765278,54.6428571 46.6647421,53.1705357 46.8165278,51.2765873 L48.5711707,29.3452381 C48.5711707,26.5506944 45.8531945,24.2857143 42.4997421,24.2857143 Z M45.5354564,63.75 C45.5354564,65.4272321 44.1769743,66.7857143 42.4997421,66.7857143 C40.82251,66.7857143 39.4640278,65.4272321 39.4640278,63.75 C39.4640278,62.0727679 40.82251,60.7142857 42.4997421,60.7142857 C44.1769743,60.7142857 45.5354564,62.0727679 45.5354564,63.75 Z" id="Path-2" fill="#FFFFFF"></path>
                    </g>
                </g>
            </g>
        </g>
    </g>
</svg>
