<?xml version="1.0" encoding="UTF-8"?>
<svg width="185px" height="185px" viewBox="0 0 185 185" version="1.1" xmlns="http://www.w3.org/2000/svg" xmlns:xlink="http://www.w3.org/1999/xlink">
    <title>Group 2</title>
    <defs>
        <linearGradient x1="0%" y1="48.6454755%" x2="99.5328336%" y2="51.3418688%" id="linearGradient-1">
            <stop stop-color="#536479" offset="0%"></stop>
            <stop stop-color="#0A2240" offset="100%"></stop>
        </linearGradient>
        <linearGradient x1="0%" y1="48.3386202%" x2="99.5328336%" y2="51.645857%" id="linearGradient-2">
            <stop stop-color="#536479" offset="0%"></stop>
            <stop stop-color="#0A2240" offset="100%"></stop>
        </linearGradient>
        <linearGradient x1="0%" y1="46.7343913%" x2="99.5328336%" y2="53.235097%" id="linearGradient-3">
            <stop stop-color="#536479" offset="0%"></stop>
            <stop stop-color="#0A2240" offset="100%"></stop>
        </linearGradient>
        <linearGradient x1="0.255427424%" y1="0%" x2="99.2797927%" y2="99.5328336%" id="linearGradient-4">
            <stop stop-color="#536479" offset="0%"></stop>
            <stop stop-color="#0A2240" offset="100%"></stop>
        </linearGradient>
        <linearGradient x1="0%" y1="0%" x2="100%" y2="100%" id="linearGradient-5">
            <stop stop-color="#00A1E0" offset="0%"></stop>
            <stop stop-color="#0033A1" offset="100%"></stop>
        </linearGradient>
    </defs>
    <g id="NPS" stroke="none" stroke-width="1" fill="none" fill-rule="evenodd">
        <g id="NPS-Survey-pop-up-" transform="translate(-631.000000, -166.000000)">
            <g id="Group-2" transform="translate(631.000000, 166.000000)">
                <path d="M0,92.5 C0,143.586339 41.4136606,185 92.5,185 C143.586339,185 185,143.586339 185,92.5 C185,41.4136606 143.586339,0 92.5,0 C41.4136606,0 0,41.4136606 0,92.5 Z" id="illustration/grey" fill="#F5F5F5"></path>
                <g id="information" transform="translate(55.601093, 46.502732)">
                    <path d="M0.00914348836,5.81261359 L0,87.186651 C0,90.3828955 2.52114108,92.9985352 5.6032,92.9988999 L60.0966323,93.0054645 C63.1797462,93.0054645 65.7026457,90.3901895 65.7029974,87.1928509 L65.7103825,21.4143643 C65.7103825,19.6296972 65.0270826,17.9179704 63.8104711,16.6559206 L49.6584611,1.97613545 C48.4416738,0.71408567 46.79145,0.00492347117 45.07054,0.00474112038 L5.61533271,0 C2.53221877,0 0.00949516099,2.61527494 0.00914348836,5.81261359 Z" id="Path" fill="#C0C6D0"></path>
                    <g id="Group" transform="translate(11.595950, 31.043313)" fill-rule="nonzero">
                        <g>
                            <path d="M2.55087041,39.0566683 L39.9676124,39.0566683 C41.3764718,39.0566683 42.5184828,38.3507963 42.5184828,37.4799864 L42.5184828,33.6351527 C42.5184828,32.7643428 41.3764718,32.0584708 39.9676124,32.0584708 L2.55087041,32.0584708 C1.14201104,32.0584708 0,32.7643428 0,33.6351527 L0,37.4799864 C0,38.3507963 1.14201104,39.0566683 2.55087041,39.0566683 Z" id="Path" fill="url(#linearGradient-1)"></path>
                            <g transform="translate(0.000000, 15.459419)" fill="url(#linearGradient-2)" id="Path">
                                <path d="M2.55087041,7.75045537 L39.9676124,7.75045537 C41.3764718,7.75045537 42.5184828,6.96870697 42.5184828,6.00429109 L42.5184828,1.74616428 C42.5184828,0.781748408 41.3764718,0 39.9676124,0 L2.55087041,0 C1.14201104,0 0,0.781748408 0,1.74616428 L0,6.00429109 C0,6.96870697 1.14201104,7.75045537 2.55087041,7.75045537 Z"></path>
                            </g>
                            <g id="Group-Copy" transform="translate(0.147743, 0.000000)" fill="url(#linearGradient-3)">
                                <path d="M1.64285701,6.9981975 L25.7406538,6.9981975 C26.6480125,6.9981975 27.3835108,6.29232546 27.3835108,5.42151562 L27.3835108,1.57668188 C27.3835108,0.705872041 26.6480125,0 25.7406538,0 L1.64285701,0 C0.735498293,0 0,0.705872041 0,1.57668188 L0,5.42151562 C0,6.29232546 0.735498293,6.9981975 1.64285701,6.9981975 Z" id="Path"></path>
                            </g>
                        </g>
                    </g>
                    <path d="M65.6531929,19.111775 C65.6738934,19.2026721 65.6930151,19.2909113 65.7103825,19.3761384 L48.5801615,19.3761384 C47.3672504,19.3761384 46.3837994,18.3830037 46.3837994,17.1577536 L46.3837994,0 C46.5176512,0.0240974708 46.6583447,0.0522702493 46.8034239,0.0846955225 C48.0803663,0.369967052 49.2446839,1.03317906 50.1695418,1.96713325 L63.7924251,15.7266119 C64.713599,16.6570223 65.3604031,17.829825 65.6531929,19.111775 Z" id="Path" fill="url(#linearGradient-4)" fill-rule="nonzero"></path>
                </g>
                <path d="M121.311475,102.103825 C109.605676,102.103825 100.081967,111.627534 100.081967,123.333333 C100.081967,135.039133 109.605676,144.562842 121.311475,144.562842 C133.017275,144.562842 142.540984,135.039133 142.540984,123.333333 C142.540984,111.627534 133.017194,102.103825 121.311475,102.103825 Z" id="Path" fill="url(#linearGradient-5)"></path>
                <path d="M122.255296,113.90476 L124.413395,120.083126 L124.413395,120.083126 L131.187962,120.083126 C131.740246,120.083126 132.187962,120.530842 132.187962,121.083126 C132.187962,121.415245 132.023072,121.725693 131.747901,121.91166 L126.331367,125.572263 L126.331367,125.572263 L128.439067,131.606945 C128.621173,132.128343 128.346122,132.698645 127.824724,132.880751 C127.526562,132.984889 127.196728,132.942054 126.935056,132.765212 L121.311288,128.964589 L121.311288,128.964589 L115.687407,132.765114 C115.229813,133.074348 114.608175,132.954079 114.298941,132.496485 C114.122094,132.234793 114.079272,131.904936 114.183438,131.606763 L116.291584,125.572263 L116.291584,125.572263 L110.875049,121.91166 C110.417463,121.602414 110.29721,120.980773 110.606456,120.523187 C110.792422,120.248015 111.102871,120.083126 111.434989,120.083126 L118.208807,120.083126 L118.208807,120.083126 L120.367179,113.904725 C120.549321,113.383339 121.119642,113.108328 121.641028,113.290469 C121.928677,113.390957 122.154819,113.617107 122.255296,113.90476 Z" id="Path" fill="#FFFFFF"></path>
            </g>
        </g>
    </g>
</svg>