<svg xmlns="http://www.w3.org/2000/svg" xmlns:xlink="http://www.w3.org/1999/xlink" width="30" height="30" viewBox="0 0 30 30">
    <defs>
        <path id="k8cr1fzoia" d="M9.318 5c1.312-.013 2.43.955 2.615 2.27.12.916.343 1.816.664 2.681.36.962.13 2.047-.591 2.78l-.926.932.267.426c1.242 1.906 2.89 3.513 4.825 4.704l.014.008.93-.935c.675-.67 1.651-.918 2.55-.66l.207.067c.861.324 1.756.548 2.673.67 1.314.186 2.281 1.335 2.248 2.656v3.008c.003.742-.304 1.45-.847 1.95-.542.502-1.27.75-2.013.681-3.166-.346-6.206-1.434-8.873-3.174-2.486-1.59-4.595-3.712-6.172-6.21-1.738-2.7-2.82-5.775-3.16-8.985-.065-.736.18-1.466.674-2.012.495-.545 1.195-.856 1.929-.857zm.006 1.25H6.333c-.387 0-.755.164-1.015.451-.26.287-.388.67-.354 1.046.317 3.004 1.333 5.891 2.968 8.432 1.482 2.347 3.46 4.337 5.798 5.832 2.509 1.637 5.364 2.66 8.326 2.983.386.036.768-.095 1.054-.358.285-.263.446-.635.445-1.026v-3.027c.017-.7-.49-1.304-1.177-1.402-1.004-.133-1.99-.38-2.94-.737-.502-.19-1.069-.068-1.448.31l-1.267 1.274c-.197.198-.501.24-.743.1-2.594-1.483-4.742-3.645-6.217-6.255-.139-.245-.097-.553.1-.752l1.265-1.272c.377-.383.497-.952.308-1.459-.354-.954-.6-1.946-.731-2.951-.096-.687-.685-1.196-1.381-1.189zM21.696 5c.342 0 .62.278.62.62V7.5h1.854c.345 0 .625.28.625.625s-.28.625-.625.625h-1.855v1.88c0 .342-.277.62-.62.62-.342 0-.62-.278-.62-.62V8.75h-1.854c-.345 0-.625-.28-.625-.625s.28-.625.625-.625h1.854V5.62c0-.342.278-.62.62-.62z"/>
    </defs>
    <g fill="none" fill-rule="evenodd">
        <g>
            <g transform="translate(-1159 -29) translate(1159 29)">
                <mask id="18oc75jrsb" fill="#fff">
                    <use xlink:href="#k8cr1fzoia"/>
                </mask>
                <use fill="#000" xlink:href="#k8cr1fzoia"/>
                <path fill="#FFF" d="M0 0H29.754V30H0z" mask="url(#18oc75jrsb)"/>
            </g>
        </g>
    </g>
</svg>
