<svg width="32" height="32" fill="none" xmlns="http://www.w3.org/2000/svg"><g clip-path="url(#clip0)"><path d="M15.684 2.5H5.735A2.747 2.747 0 003 5.229v18.814c0 1.497 1.238 2.728 2.735 2.728h13.503c1.497 0 2.735-1.231 2.735-2.728V9.098L15.684 2.5z" fill="url(#paint0_linear)"/><path fill-rule="evenodd" clip-rule="evenodd" d="M15.715 2.5l6.258 6.604h-4.948c-1.124 0-1.31-.504-1.31-1.573V2.5z" fill="#C0C6D0"/><path d="M5.66 14.56h7.6m-7.6 8h12.92H5.66zm0-4h12.92H5.66z" stroke="#C0C6D0" stroke-width="2" stroke-linecap="round" stroke-linejoin="round"/><path d="M22.855 16.808v7.415l-2.99-.003c-.96 0-1.438 1.165-.76 1.847l4.612 4.636a1.083 1.083 0 001.536 0l4.606-4.631c.678-.681.198-1.846-.76-1.846l-2.986-.002v-7.416a1.638 1.638 0 00-1.629-1.638 1.64 1.64 0 00-1.629 1.638z" fill="url(#paint1_linear)"/></g><defs><linearGradient id="paint0_linear" x1="6.689" y1="2.5" x2="22.788" y2="23.094" gradientUnits="userSpaceOnUse"><stop stop-color="#536479"/><stop offset="1" stop-color="#0A2240"/></linearGradient><linearGradient id="paint1_linear" x1="32.97" y1="22.986" x2="16.079" y2="22.986" gradientUnits="userSpaceOnUse"><stop stop-color="#35D79A"/><stop offset="1" stop-color="#00AD6C"/></linearGradient><clipPath id="clip0"><path fill="#fff" d="M0 0h32v32H0z"/></clipPath></defs></svg>
