<?xml version="1.0" encoding="UTF-8"?>
<svg width="29px" height="24px" viewBox="0 0 29 24" version="1.1" xmlns="http://www.w3.org/2000/svg" xmlns:xlink="http://www.w3.org/1999/xlink">
    <title>Manage payments@0.5x</title>
    <g id="11.0-Manage-Payments" stroke="none" stroke-width="1" fill="none" fill-rule="evenodd">
        <g id="11.1.1-Manage-Payments---Navigation-[11.1]" transform="translate(-141.000000, -783.000000)" fill-rule="nonzero">
            <g id="Manage-payments" transform="translate(141.000000, 783.000000)">
                <g id="to-do-list">
                    <path d="M19.9636049,24 L1.03634218,24 C0.463979285,24 0,23.5351861 0,22.9617937 L0,1.03820627 C0,0.464813853 0.463979285,0 1.03634218,0 L19.9636578,0 C20.5360207,0 21,0.464813853 21,1.03820627 L21,22.9617407 C21,23.5351861 20.5360207,24 19.9636049,24 Z" id="Path" fill="#C0C6D0"></path>
                    <path d="M11.157892,8 L2.84210795,8 C2.37704039,8 2,7.55226597 2,7 C2,6.44773403 2.37704039,6 2.84210795,6 L11.157892,6 C11.6229596,6 12,6.44773403 12,7 C12,7.55232664 11.6229596,8 11.157892,8 Z" id="Path" fill="#273C57"></path>
                    <path d="M11.157892,13 L2.84210795,13 C2.37704039,13 2,12.552266 2,12 C2,11.447734 2.37704039,11 2.84210795,11 L11.157892,11 C11.6229596,11 12,11.447734 12,12 C12,12.5523266 11.6229596,13 11.157892,13 Z" id="Path" fill="#273C57"></path>
                    <path d="M11.157892,18 L2.84210795,18 C2.37704039,18 2,17.552266 2,17 C2,16.447734 2.37704039,16 2.84210795,16 L11.157892,16 C11.6229596,16 12,16.447734 12,17 C12,17.5523266 11.6229596,18 11.157892,18 Z" id="Path" fill="#273C57"></path>
                </g>
                <g id="check" transform="translate(14.000000, 5.000000)" fill="#B41D64">
                    <path d="M5.74378271,11.7688223 C5.60059835,11.9172095 5.40524496,12 5.20231862,12 C4.99939229,12 4.80403889,11.9172095 4.66085453,11.7688223 L0.33657442,7.3128725 C-0.112191473,6.85051714 -0.112191473,6.10077903 0.33657442,5.6392906 L0.87803851,5.08128545 C1.32694467,4.61893008 2.05380515,4.61893008 2.50257105,5.08128545 L5.20231862,7.86293091 L12.497429,0.346766523 C12.9463351,-0.115588841 13.6738968,-0.115588841 14.1219615,0.346766523 L14.6634256,0.904771671 C15.1121915,1.36712703 15.1121915,2.11672063 14.6634256,2.57835357 L5.74378271,11.7688223 Z" id="Path"></path>
                </g>
            </g>
        </g>
    </g>
</svg>