<?xml version="1.0" encoding="UTF-8"?>
<svg width="38px" height="34px" viewBox="0 0 38 34" version="1.1" xmlns="http://www.w3.org/2000/svg" xmlns:xlink="http://www.w3.org/1999/xlink">
    <title>OTT icon</title>
    <defs>
        <linearGradient x1="0%" y1="0%" x2="100%" y2="100%" id="linearGradient-1">
            <stop stop-color="#00A1E0" offset="0%"></stop>
            <stop stop-color="#0033A1" offset="100%"></stop>
        </linearGradient>
        <linearGradient x1="0%" y1="37.5%" x2="99.5328336%" y2="62.3832084%" id="linearGradient-2">
            <stop stop-color="#35D79A" offset="0%"></stop>
            <stop stop-color="#00AD6C" offset="100%"></stop>
        </linearGradient>
    </defs>
    <g id="Symbols" stroke="none" stroke-width="1" fill="none" fill-rule="evenodd">
        <g id="OTT-icon">
            <path d="M25.61664,21.798 C27.17456,19.49136 28,16.81624 28,14 C28,11.21736 27.19192,8.56744 25.6676,6.2748 L25.6984,6.25576 L25.14064,5.52216 C22.47112,2.0132 18.41056,0 14,0 C13.17288,0 12.35864,0.07056 11.56288,0.20888 C11.03256,0.30072 10.51064,0.4228 9.99936,0.574 C9.744,0.6496 9.49088,0.73192 9.24056,0.82208 C6.7396,1.72032 4.5276,3.3292 2.85936,5.52216 C2.8588,5.52272 2.85824,5.52384 2.85768,5.5244 L2.30104,6.25576 L2.33184,6.2748 C0.80808,8.568 0,11.21792 0,14 C0,16.81736 0.826,19.49304 2.38392,21.798 L2.35424,21.81704 L2.91312,22.5428 C5.58376,26.01088 9.62528,28 14,28 C14.54712,28 15.08864,27.96864 15.62288,27.9076 C15.9348,27.87176 16.24392,27.82304 16.5508,27.76648 C19.92088,27.15104 22.94488,25.32432 25.08632,22.54392 C25.08688,22.5428 25.08744,22.54224 25.08856,22.54112 L25.64632,21.81648 L25.61664,21.798 Z M22.94824,22.46048 C22.8872,22.52544 22.82672,22.59096 22.76456,22.65424 C22.66152,22.75896 22.55568,22.86032 22.44984,22.96112 C22.3916,23.01656 22.33448,23.07312 22.27512,23.12744 C22.15304,23.23888 22.0276,23.34584 21.9016,23.45168 C21.85512,23.49088 21.81032,23.53176 21.76384,23.56984 C21.41328,23.856 21.04816,24.12144 20.67072,24.3656 C20.61864,24.3992 20.56488,24.43 20.51224,24.46304 C20.3756,24.54816 20.23896,24.63272 20.09896,24.71224 C20.0284,24.75256 19.95616,24.78952 19.88504,24.82872 C19.76072,24.89648 19.63584,24.96424 19.50872,25.02752 C19.42976,25.06728 19.34912,25.10424 19.26904,25.14176 C19.14752,25.19944 19.02544,25.256 18.90224,25.3092 C18.81712,25.34616 18.73144,25.38088 18.64576,25.4156 C18.5248,25.46488 18.40328,25.51248 18.28064,25.55784 C18.1916,25.59088 18.102,25.62224 18.0124,25.65304 C17.89032,25.69504 17.76712,25.7348 17.64336,25.77288 C17.59072,25.78912 17.53752,25.80424 17.48432,25.81992 C18.59592,24.7016 19.5244,23.05464 20.18576,21.04704 C21.25032,21.36904 22.24712,21.77112 23.13976,22.2516 C23.07648,22.3216 23.0132,22.3916 22.94824,22.46048 Z M9.98368,25.65136 C9.89632,25.62168 9.80952,25.59088 9.72272,25.55896 C9.59728,25.51248 9.4724,25.46376 9.34864,25.41336 C9.26576,25.37976 9.18288,25.34616 9.10056,25.31032 C8.97344,25.25544 8.84744,25.19664 8.722,25.13728 C8.64584,25.10144 8.56968,25.06616 8.49408,25.02864 C8.3608,24.962 8.22976,24.89144 8.09928,24.82032 C8.03432,24.78504 7.9688,24.75088 7.9044,24.71448 C7.75376,24.62824 7.60536,24.53752 7.45808,24.44512 C7.41664,24.4188 7.37352,24.39472 7.33208,24.36784 C6.95184,24.122 6.58392,23.85432 6.23056,23.56592 C6.19416,23.53624 6.15944,23.50432 6.1236,23.47408 C5.98696,23.35984 5.85144,23.24392 5.71928,23.12296 C5.66608,23.07424 5.61456,23.02328 5.56248,22.974 C5.45048,22.8676 5.33848,22.76064 5.22984,22.65032 C5.1716,22.59096 5.1156,22.52992 5.05848,22.46944 C4.99128,22.39776 4.92464,22.32496 4.85856,22.2516 C5.75064,21.77112 6.74744,21.36904 7.812,21.0476 C8.47336,23.0552 9.4024,24.70216 10.514,25.82048 C10.46192,25.80536 10.4104,25.79024 10.35832,25.77456 C10.234,25.73536 10.10856,25.69448 9.98368,25.65136 Z M4.99072,5.60056 C5.05792,5.52776 5.12512,5.4544 5.194,5.38328 C5.28864,5.28584 5.38608,5.19232 5.48296,5.0988 C5.5496,5.0344 5.61568,4.96888 5.68344,4.90616 C5.79432,4.80424 5.908,4.7068 6.02168,4.60936 C6.07992,4.55952 6.13592,4.508 6.19472,4.45984 C6.36496,4.31984 6.53856,4.18432 6.71552,4.05384 C6.72952,4.04376 6.74296,4.03424 6.75696,4.02416 C6.92944,3.89816 7.10472,3.7772 7.2828,3.66072 C7.34552,3.61984 7.41048,3.58176 7.47432,3.542 C7.60088,3.46248 7.728,3.38352 7.85736,3.30848 C7.93408,3.26424 8.01248,3.22336 8.08976,3.18136 C8.20904,3.1164 8.32832,3.05088 8.44928,2.98984 C8.53328,2.94728 8.61896,2.90752 8.70408,2.8672 C8.82168,2.8112 8.93984,2.75576 9.05912,2.70368 C9.1476,2.66504 9.2372,2.62864 9.3268,2.59168 C9.44552,2.54296 9.5648,2.49592 9.6852,2.45112 C9.7356,2.43264 9.78656,2.41528 9.83696,2.3968 C8.93256,3.56664 8.18272,5.11448 7.64456,6.93 C6.62592,6.62256 5.66888,6.24568 4.81096,5.79656 C4.87088,5.7316 4.9308,5.66608 4.99072,5.60056 Z M18.67152,2.5928 C18.76168,2.62976 18.85128,2.66616 18.94032,2.7048 C19.05904,2.75688 19.17664,2.81176 19.29368,2.8672 C19.37936,2.90808 19.4656,2.94784 19.55016,2.9904 C19.67056,3.05088 19.78872,3.11528 19.90632,3.18024 C19.98528,3.22336 20.06424,3.2648 20.14208,3.3096 C20.26976,3.38352 20.3952,3.46136 20.52064,3.53976 C20.5856,3.58064 20.65224,3.61928 20.71664,3.66128 C20.89304,3.77608 21.06608,3.89648 21.23688,4.0208 C21.25648,4.03536 21.27608,4.04936 21.29568,4.06336 C21.46816,4.19048 21.63728,4.32208 21.80304,4.45872 C21.86576,4.51024 21.92568,4.56512 21.98784,4.61832 C22.09816,4.71296 22.20848,4.80704 22.31544,4.9056 C22.38544,4.97 22.45264,5.0372 22.52096,5.10272 C22.61616,5.19456 22.71192,5.2864 22.80488,5.38216 C22.87544,5.45496 22.94432,5.53 23.0132,5.60448 C23.072,5.66832 23.13024,5.73272 23.18848,5.79768 C22.33056,6.2468 21.37352,6.62312 20.35488,6.93112 C19.81672,5.1156 19.06688,3.56776 18.16248,2.39792 C18.21288,2.41584 18.26384,2.4332 18.31424,2.45168 C18.43352,2.49704 18.5528,2.54464 18.67152,2.5928 Z M21.27272,13.16 C21.23968,11.53264 21.06272,9.9876 20.7648,8.56576 C22.01304,8.1928 23.17336,7.71456 24.22168,7.13664 C25.43576,8.9376 26.14192,10.99224 26.2864,13.16 L21.27272,13.16 Z M14.84,1.82168 C16.45336,2.36936 17.86288,4.46432 18.72136,7.35 C17.48208,7.61264 16.1756,7.76944 14.84,7.81704 L14.84,1.82168 Z M13.16,7.8176 C11.8244,7.77 10.51792,7.61264 9.27864,7.35056 C10.13712,4.46488 11.54664,2.37048 13.16,1.82224 L13.16,7.8176 Z M13.16,9.49536 L13.16,13.16 L8.40672,13.16 C8.43976,11.69056 8.60272,10.28104 8.86984,8.9824 C10.23456,9.27416 11.6732,9.4472 13.16,9.49536 Z M13.16,14.84 L13.16,18.50576 C11.718,18.55392 10.31968,18.72304 8.99136,19.00864 C8.69008,17.72344 8.49296,16.31616 8.42576,14.84056 L13.16,14.84 L13.16,14.84 Z M13.16,20.18352 L13.16,25.61832 C11.64968,25.10536 10.31856,23.23664 9.45,20.6332 C10.63832,20.38288 11.88544,20.23056 13.16,20.18352 Z M14.84,25.61832 L14.84,20.18352 C16.11456,20.23056 17.36168,20.38288 18.55,20.6332 C17.682,23.23664 16.35032,25.10536 14.84,25.61832 Z M14.84,18.50576 L14.84,14.84 L19.57368,14.84 C19.50704,16.31616 19.30992,17.72344 19.00864,19.00808 C17.68032,18.72248 16.282,18.55336 14.84,18.50576 Z M14.84,13.16 L14.84,9.49536 C16.3268,9.44776 17.76544,9.27472 19.1296,8.98296 C19.39672,10.2816 19.55968,11.69112 19.59272,13.16056 L14.84,13.16 L14.84,13.16 Z M7.2352,8.5652 C6.93728,9.9876 6.76032,11.53264 6.72728,13.16 L1.7136,13.16 C1.85808,10.99224 2.56424,8.9376 3.77832,7.13664 C4.82664,7.714 5.98696,8.19224 7.2352,8.5652 Z M6.7452,14.84 C6.8124,16.47352 7.02464,18.018 7.35896,19.4292 C6.07992,19.81504 4.89104,20.314 3.81976,20.92048 C2.57992,19.10832 1.86032,17.03408 1.71416,14.84 L6.7452,14.84 Z M20.64104,19.4292 C20.97536,18.018 21.18816,16.47352 21.2548,14.84 L26.28584,14.84 C26.13968,17.03352 25.42064,19.1072 24.18024,20.92048 C23.10896,20.314 21.92008,19.81504 20.64104,19.4292 Z" id="Shape" fill="url(#linearGradient-1)"></path>
            <g id="Group-2" transform="translate(14.000000, 22.000000)">
                <path d="M22.8571429,12 L1.14285714,12 C0.511428571,12 0,11.4347368 0,10.7368421 L0,1.26315789 C0,0.565263158 0.511428571,0 1.14285714,0 L22.8571429,0 C23.4885714,0 24,0.565263158 24,1.26315789 L24,10.7368421 C24,11.4347368 23.4885714,12 22.8571429,12 Z" id="Path" fill="url(#linearGradient-2)" fill-rule="nonzero"></path>
                <circle id="Oval" fill="#00AD6C" cx="12" cy="6" r="4"></circle>
            </g>
        </g>
    </g>
</svg>